Coordinates
version=1
nRows=18
nColumns=34
inDegrees=no

Units are S.I. units (second, meters, Newtons, ...)
If the header above contains a line with 'inDegrees', this indicates whether rotational values are in degrees (yes) or radians (no).

endheader
time	pelvis_tilt	pelvis_list	pelvis_rotation	pelvis_tx	pelvis_ty	pelvis_tz	hip_flexion_r	hip_adduction_r	hip_rotation_r	knee_angle_r	ankle_angle_r	subtalar_angle_r	mtp_angle_r	hip_flexion_l	hip_adduction_l	hip_rotation_l	knee_angle_l	ankle_angle_l	subtalar_angle_l	mtp_angle_l	lumbar_extension	lumbar_bending	lumbar_rotation	arm_flex_r	arm_add_r	arm_rot_r	elbow_flex_r	pro_sup_r	arm_flex_l	arm_add_l	arm_rot_l	elbow_flex_l	pro_sup_l
0.46	0.0536816	-0.120256	-0.0446147	0.417429	0.925128	-0.236862	-0.216145	0.182759	0.0332933	0.0251536	0.257577	0.0662232	0.00626068	0.465707	-0.151152	-0.0627502	0.47846	0.143821	-0.0195214	0.00620952	-0.379497	0.142443	0.0939344	0.388121	-0.317479	0.239061	0.91168	2.06884	-0.0750436	-0.161197	-0.167744	0.707484	2.11312
0.47	0.060656	-0.119412	-0.0440662	0.429107	0.924238	-0.236928	-0.248359	0.181366	0.0431729	0.00940764	0.258474	0.0651166	0.00626005	0.448681	-0.144446	-0.054836	0.402524	0.144822	0.0244991	0.00620894	-0.386949	0.140565	0.0950182	0.404957	-0.316513	0.245485	0.917758	2.07144	-0.0809385	-0.160311	-0.175151	0.706594	2.11143
0.48	0.0673905	-0.118809	-0.0437967	0.440899	0.923242	-0.237065	-0.278516	0.179773	0.0496179	-0.00286738	0.26091	0.0674722	0.00625942	0.430933	-0.13811	-0.0449074	0.330492	0.144037	0.0624833	0.00620835	-0.393889	0.139085	0.0962981	0.420601	-0.315677	0.251568	0.92374	2.07467	-0.086363	-0.159251	-0.182153	0.705115	2.1098
0.49	0.0738034	-0.118283	-0.044178	0.452784	0.922179	-0.237266	-0.305825	0.177615	0.0509574	-0.0107061	0.265803	0.0754728	0.0062588	0.412924	-0.132237	-0.0339806	0.264272	0.141753	0.0923296	0.00620777	-0.400359	0.137761	0.0981146	0.435041	-0.315118	0.257403	0.929677	2.07817	-0.0911922	-0.157947	-0.188796	0.702983	2.10822
0.5	0.0798956	-0.117604	-0.0455026	0.464745	0.921097	-0.237525	-0.329683	0.174406	0.0456062	-0.0133154	0.273894	0.0911452	0.00625817	0.394999	-0.126773	-0.0233981	0.205598	0.138295	0.112698	0.00620718	-0.406453	0.136266	0.100697	0.44824	-0.314916	0.263007	0.935611	2.08151	-0.0953285	-0.156348	-0.195163	0.700162	2.10666
0.51	0.0857027	-0.116495	-0.0479673	0.476774	0.920044	-0.237837	-0.349677	0.169588	0.0323522	-0.0100623	0.285611	0.115959	0.00625754	0.37743	-0.121532	-0.0146778	0.155896	0.13397	0.123233	0.0062066	-0.412259	0.134227	0.104145	0.460113	-0.315085	0.268323	0.941568	2.08425	-0.0987229	-0.154429	-0.201351	0.696653	2.10509
0.52	0.0912589	-0.114667	-0.0516598	0.488872	0.919057	-0.238194	-0.365602	0.162611	0.0106784	-0.00050237	0.300923	0.150403	0.00625691	0.360443	-0.116222	-0.00929117	0.116134	0.129001	0.12466	0.00620601	-0.417804	0.131269	0.108426	0.470515	-0.315571	0.27322	0.947562	2.08597	-0.101392	-0.152194	-0.20746	0.692508	2.10342
0.53	0.0965837	-0.111854	-0.0565485	0.501055	0.918159	-0.238587	-0.377505	0.153007	-0.0189388	0.0155211	0.319239	0.193615	0.00625628	0.344205	-0.110487	-0.00839869	0.0866963	0.123472	0.118665	0.00620543	-0.423051	0.127051	0.113366	0.479245	-0.31626	0.27751	0.953585	2.0864	-0.103426	-0.149678	-0.213581	0.687832	2.1016
0.54	0.101694	-0.107827	-0.06248	0.513347	0.91736	-0.239006	-0.385727	0.140458	-0.05487	0.0377402	0.339377	0.243242	0.00625565	0.328775	-0.103946	-0.0125756	0.0672894	0.117265	0.107531	0.00620484	-0.427919	0.121293	0.118668	0.486063	-0.316982	0.280972	0.9596	2.08544	-0.104983	-0.146949	-0.219788	0.682788	2.09954
0.55	0.106651	-0.102389	-0.0691955	0.525791	0.916692	-0.239452	-0.390891	0.124853	-0.0944611	0.0653773	0.359664	0.295669	0.00625503	0.314062	-0.0962307	-0.0215864	0.056932	0.110033	0.0935698	0.00620426	-0.432326	0.113803	0.123932	0.490725	-0.317535	0.283379	0.965537	2.08326	-0.106272	-0.144107	-0.226137	0.677581	2.09722
0.56	0.111514	-0.0954337	-0.076359	0.538416	0.916164	-0.239923	-0.393771	0.10631	-0.134455	0.0972766	0.378147	0.346598	0.0062544	0.299874	-0.0870362	-0.0343987	0.0541069	0.101276	0.0786856	0.00620367	-0.436197	0.104503	0.128703	0.493015	-0.317711	0.284538	0.971296	2.08023	-0.107516	-0.141268	-0.232643	0.67243	2.09463
0.57	0.116309	-0.0869578	-0.0835993	0.551246	0.915779	-0.240424	-0.395067	0.0851686	-0.171667	0.132195	0.392877	0.391903	0.00625377	0.286034	-0.0761778	-0.0494023	0.0570234	0.0905058	0.0641196	0.00620309	-0.439457	0.0934588	0.132527	0.492789	-0.317336	0.284333	0.976761	2.07681	-0.108914	-0.138549	-0.239259	0.667529	2.09181
0.58	0.120996	-0.0770628	-0.0905518	0.56429	0.91553	-0.240967	-0.395212	0.0619213	-0.203549	0.169097	0.402138	0.428305	0.00625314	0.272494	-0.0636157	-0.0647533	0.0639268	0.0774475	0.050396	0.0062025	-0.44201	0.0808783	0.13501	0.49	-0.316291	0.282737	0.981805	2.07343	-0.110603	-0.136059	-0.245849	0.663017	2.08885
0.59	0.125441	-0.0659348	-0.0968927	0.577539	0.91541	-0.241572	-0.394249	0.037133	-0.2285	0.207365	0.404568	0.453716	0.00625251	0.259414	-0.0494545	-0.0787352	0.0733756	0.0622143	0.0374335	0.00620192	-0.443738	0.0670902	0.135853	0.484705	-0.314535	0.279817	0.986307	2.07041	-0.112637	-0.133886	-0.252173	0.658969	2.08586
0.6	0.129422	-0.0538133	-0.102365	0.59096	0.915403	-0.242258	-0.391808	0.011353	-0.245917	0.246898	0.399191	0.467244	0.00625189	0.24718	-0.0339198	-0.0900484	0.0844192	0.0453991	0.0247693	0.00620133	-0.444502	0.0524974	0.134882	0.477063	-0.312099	0.275699	0.990161	2.06794	-0.114973	-0.132103	-0.257894	0.655397	2.08295
0.61	0.132648	-0.0409545	-0.106792	0.604502	0.91549	-0.243045	-0.387156	-0.0149539	-0.25607	0.288082	0.385402	0.46901	0.00625126	0.236359	-0.0173201	-0.0979782	0.0966395	0.0280519	0.0118317	0.00620075	-0.444153	0.0375214	0.132054	0.467306	-0.309072	0.270539	0.993279	2.06609	-0.117481	-0.130768	-0.262606	0.652271	2.08023
0.62	0.134793	-0.0275996	-0.110088	0.618102	0.915648	-0.243949	-0.379317	-0.0414454	-0.259848	0.331674	0.362925	0.45982	0.00625063	0.227602	-7.06933e-06	-0.102429	0.110058	0.0115445	-0.00180258	0.00620016	-0.442546	0.0225497	0.127456	0.455714	-0.305582	0.26448	0.995591	2.06482	-0.119968	-0.129934	-0.26589	0.649554	2.07781
0.63	0.135541	-0.0139543	-0.112256	0.631687	0.915854	-0.244976	-0.367223	-0.067904	-0.258482	0.37861	0.331772	0.440836	0.00625	0.22152	0.0176627	-0.103847	0.124947	-0.00264781	-0.0162284	0.00619958	-0.439562	0.00789407	0.121287	0.442579	-0.301762	0.257631	0.997046	2.0641	-0.122204	-0.129649	-0.267372	0.64723	2.07578
